<?xml version="1.0" encoding="UTF-8" standalone="no"?>
<svg
   xmlns:dc="http://purl.org/dc/elements/1.1/"
   xmlns:cc="http://creativecommons.org/ns#"
   xmlns:rdf="http://www.w3.org/1999/02/22-rdf-syntax-ns#"
   xmlns:svg="http://www.w3.org/2000/svg"
   xmlns="http://www.w3.org/2000/svg"
   xmlns:sodipodi="http://sodipodi.sourceforge.net/DTD/sodipodi-0.dtd"
   xmlns:inkscape="http://www.inkscape.org/namespaces/inkscape"
   id="Capa_1"
   enable-background="new 0 0 512 512"
   height="512"
   viewBox="0 0 512 512"
   width="512"
   version="1.1"
   sodipodi:docname="facebook (1).svg"
   inkscape:version="1.0.1 (3bc2e813f5, 2020-09-07)">
  <metadata
     id="metadata9">
    <rdf:RDF>
      <cc:Work
         rdf:about="">
        <dc:format>image/svg+xml</dc:format>
        <dc:type
           rdf:resource="http://purl.org/dc/dcmitype/StillImage" />
      </cc:Work>
    </rdf:RDF>
  </metadata>
  <defs
     id="defs7" />
  <sodipodi:namedview
     pagecolor="#ffffff"
     bordercolor="#666666"
     borderopacity="1"
     objecttolerance="10"
     gridtolerance="10"
     guidetolerance="10"
     inkscape:pageopacity="0"
     inkscape:pageshadow="2"
     inkscape:window-width="1160"
     inkscape:window-height="828"
     id="namedview5"
     showgrid="false"
     inkscape:zoom="1.850631"
     inkscape:cx="256"
     inkscape:cy="300.76458"
     inkscape:window-x="0"
     inkscape:window-y="40"
     inkscape:window-maximized="0"
     inkscape:current-layer="Capa_1" />
  <path
     d="m512 256c0-141.4-114.6-256-256-256s-256 114.6-256 256 114.6 256 256 256c1.5 0 3 0 4.5-.1v-199.2h-55v-64.1h55v-47.2c0-54.7 33.4-84.5 82.2-84.5 23.4 0 43.5 1.7 49.3 2.5v57.2h-33.6c-26.5 0-31.7 12.6-31.7 31.1v40.8h63.5l-8.3 64.1h-55.2v189.5c107-30.7 185.3-129.2 185.3-246.1z"
     id="path2" />
  <path
     style="fill:#0000ff;stroke:#ff0000;stroke-width:0.764179"
     d="M 239.18806,511.10459 C 164.37107,505.74584 96.607859,468.99843 51.903408,409.54171 20.861763,368.25647 2.968463,318.81241 0.9012778,268.60896 -1.0377349,221.51828 7.8308344,180.26018 28.579573,139.84478 36.533574,124.35159 41.902117,115.7268 51.649449,102.78209 69.671619,78.848168 89.803455,59.837469 114.63771,43.301633 180.14975,-0.31942258 261.2298,-11.298267 336.13946,13.308641 425.81674,42.766536 493.29585,121.75073 508.17768,214.67918 c 4.47519,27.9449 4.19585,60.3708 -0.74964,87.02239 -6.9158,37.26962 -21.36141,71.49454 -43.06,102.01887 -32.25538,45.37503 -79.42092,79.76542 -131.75908,96.07115 l -5.5403,1.72605 V 407.2245 312.93134 h 27.49589 27.49589 l 0.37007,-1.7194 c 0.40656,-1.88897 8.06501,-61.19486 8.06501,-62.45429 0,-0.52005 -10.62869,-0.78153 -31.76831,-0.78153 h -31.7683 l 0.29184,-25.40896 c 0.24177,-21.05079 0.50918,-26.06598 1.55898,-29.23957 1.61823,-4.8919 4.34512,-8.5716 8.34075,-11.25509 6.27358,-4.21339 8.99275,-4.62485 32.90325,-4.97896 l 21.97015,-0.32536 v -28.86395 -28.86395 l -4.01194,-0.46146 c -20.5728,-2.3663 -55.02804,-2.4434 -65.91045,-0.14749 -33.45148,7.05741 -54.02267,28.54831 -60.38175,63.08135 -1.06615,5.78977 -1.40691,13.16965 -1.70159,36.8515 l -0.36848,29.61194 H 232.22484 204.8 v 32.47761 32.47761 h 27.51045 27.51045 v 99.34329 99.34328 l -8.59702,-0.13351 c -4.72836,-0.0734 -10.14448,-0.24434 -12.03582,-0.37981 z"
     id="path11" />
  <path
     style="fill:#000080;stroke:#ff0000;stroke-width:0.764179"
     d="M 235.36716,510.00079 C 160.11399,503.33795 92.549013,464.8873 48.922992,403.89697 33.441544,382.2535 20.424807,356.1505 12.707041,331.27164 -4.7546833,274.98232 -1.7959581,211.82983 20.798331,158.56716 34.413098,126.47238 51.67869,100.75905 76.005617,76.347938 88.768046,63.541345 98.285339,55.61248 112.42141,46.009887 139.068,27.908946 164.34618,16.496488 194.63234,8.893722 253.15223,-5.7965863 315.38586,0.96720927 369.00389,27.845109 439.29228,63.079598 489.85347,128.58889 505.44412,204.62304 c 5.90404,28.79347 6.6168,63.51778 1.8996,92.54534 -15.00309,92.32238 -81.35475,170.23394 -170.68193,200.41843 -4.18049,1.41263 -7.87721,2.56841 -8.21492,2.56841 -0.33772,0 -0.61403,-41.95343 -0.61403,-93.22985 v -93.22985 h 27.51044 c 15.13075,0 27.51045,-0.0954 27.51045,-0.21193 0,-0.11656 0.6733,-5.01686 1.49623,-10.88955 3.41147,-24.34552 6.95726,-54.06101 6.50488,-54.51418 -0.26673,-0.26721 -14.5558,-0.59278 -31.75348,-0.7235 l -31.26852,-0.23767 0.0489,-17.72054 c 0.0269,-9.7463 0.31935,-21.7288 0.64983,-26.62779 0.53046,-7.86318 0.86954,-9.38596 2.89276,-12.99105 2.81752,-5.02043 8.65507,-9.35846 14.23318,-10.57703 2.17492,-0.47513 13.66903,-1.06719 25.54246,-1.31569 l 21.58806,-0.45182 v -29.57569 -29.57569 l -4.77612,-0.50004 c -20.05642,-2.09986 -51.51304,-2.2916 -64,-0.39009 -7.90773,1.20417 -20.88551,5.88711 -28.09657,10.13843 -8.81585,5.19743 -19.15213,15.45336 -23.96205,23.77577 -10.54283,18.24181 -12.79446,31.91395 -12.86825,78.13732 l -0.0283,17.76716 h -27.51045 -27.51045 v 33.24179 33.24179 h 27.51045 27.51045 v 98.57911 98.5791 l -8.21493,-0.10509 c -4.51821,-0.0578 -11.48179,-0.39433 -15.47463,-0.74785 z"
     id="path13" />
  <path
     style="fill:#ffffff;stroke:#ff0000;stroke-width:0.764179"
     d="M 235.36716,509.24988 C 186.30917,504.99602 136.79121,485.21365 97.814925,454.29792 87.309541,445.96512 64.688427,423.18655 56.840241,413.03803 34.54382,384.20644 18.329336,351.43377 9.9584138,318.2806 5.1090725,299.07471 3.1515583,284.31585 2.5594618,262.49552 1.4370681,221.13233 9.1096545,184.76314 26.909303,147.07369 55.722276,86.064319 110.24428,37.636331 174.99701,15.537975 c 55.78341,-19.0373662 117.42212,-17.752778 171.9403,3.583341 13.73073,5.373625 20.15203,8.383415 31.82169,14.915451 71.16847,39.836187 119.60045,111.397403 129.05099,190.680733 7.27943,61.06928 -6.67925,120.27611 -40.25258,170.73434 -26.27979,39.49661 -60.29256,69.08467 -103.18513,89.76183 -11.13943,5.36997 -31.34805,13.4132 -33.70066,13.4132 -0.73252,0 -1.26582,-1.1902 -1.58865,-3.54547 -0.26727,-1.95001 -0.48596,-43.38762 -0.48596,-92.08358 V 314.4597 l 23.11642,-0.085 c 22.00667,-0.0809 31.06492,-0.34907 31.65286,-0.93701 0.76615,-0.76614 7.89341,-57.10723 7.89341,-62.39748 v -3.58826 l -12.731,-0.50209 c -7.00205,-0.27615 -21.10116,-0.5021 -31.33134,-0.5021 h -18.60035 l 0.0284,-16.2388 c 0.0156,-8.93135 0.32692,-20.60288 0.69179,-25.93673 0.57799,-8.44928 0.93828,-10.20296 2.79828,-13.62039 2.32312,-4.26833 6.17359,-7.73329 10.69137,-9.62094 3.403,-1.42187 19.97385,-2.53302 38.32748,-2.57004 l 12.41795,-0.025 V 147.97843 117.521 l -5.5403,-0.52456 c -25.464,-2.41098 -59.20447,-1.89547 -70.41048,1.07578 -15.10067,4.00392 -25.3616,9.66042 -35.33482,19.47889 -11.57176,11.39221 -18.34925,24.645 -21.29957,41.64947 -1.58407,9.12996 -2.65086,29.09887 -2.66374,49.86215 l -0.0108,17.38507 h -27.51045 -27.51045 v 34.00597 34.00597 h 27.51045 27.51045 v 97.81493 97.81492 l -7.83284,-0.10509 c -4.30806,-0.0578 -11.0997,-0.38836 -15.09254,-0.73458 z"
     id="path15"
     sodipodi:nodetypes="ssssssssssssssscssscsscssssscccssssscccccccccsss" />
</svg>
