<?xml version="1.0" encoding="UTF-8" standalone="no"?>
<svg
   xmlns:dc="http://purl.org/dc/elements/1.1/"
   xmlns:cc="http://creativecommons.org/ns#"
   xmlns:rdf="http://www.w3.org/1999/02/22-rdf-syntax-ns#"
   xmlns:svg="http://www.w3.org/2000/svg"
   xmlns="http://www.w3.org/2000/svg"
   xmlns:sodipodi="http://sodipodi.sourceforge.net/DTD/sodipodi-0.dtd"
   xmlns:inkscape="http://www.inkscape.org/namespaces/inkscape"
   style="enable-background:new 0 0 64 64;"
   version="1.1"
   viewBox="0 0 64 64"
   xml:space="preserve"
   id="svg28"
   sodipodi:docname="iconfinder_Social-media-expand_Whatsapp_4362938.svg"
   inkscape:version="1.0.1 (3bc2e813f5, 2020-09-07)"><metadata
     id="metadata34"><rdf:RDF><cc:Work
         rdf:about=""><dc:format>image/svg+xml</dc:format><dc:type
           rdf:resource="http://purl.org/dc/dcmitype/StillImage" /></cc:Work></rdf:RDF></metadata><defs
     id="defs32" /><sodipodi:namedview
     pagecolor="#ffffff"
     bordercolor="#666666"
     borderopacity="1"
     objecttolerance="10"
     gridtolerance="10"
     guidetolerance="10"
     inkscape:pageopacity="0"
     inkscape:pageshadow="2"
     inkscape:window-width="1600"
     inkscape:window-height="847"
     id="namedview30"
     showgrid="false"
     inkscape:zoom="10.625"
     inkscape:cx="32"
     inkscape:cy="35.764706"
     inkscape:window-x="-8"
     inkscape:window-y="-8"
     inkscape:window-maximized="1"
     inkscape:current-layer="g17" /><style
     type="text/css"
     id="style2">
	.st0{fill:#231F20;}
	.st1{fill:none;stroke:#000000;stroke-width:2;stroke-linecap:round;stroke-linejoin:round;stroke-miterlimit:10;}
</style><g
     id="FB" /><g
     id="ig" /><g
     id="yt" /><g
     id="twitter" /><g
     id="snapchat" /><g
     id="WA"><g
       id="g17"><g
         id="g11"><path
           d="M2,63c-0.3,0-0.5-0.1-0.7-0.3c-0.3-0.3-0.4-0.7-0.2-1l4.5-13.6C2.6,43.3,1,37.7,1,32C1,14.9,14.9,1,32,1s31,13.9,31,31     S49.1,63,32,63c-5.7,0-11.3-1.6-16.1-4.5L2.3,62.9C2.2,63,2.1,63,2,63z M16,56.4c0.2,0,0.4,0.1,0.5,0.2c4.6,2.9,10,4.5,15.5,4.5     c16,0,29-13,29-29S48,3,32,3S3,16,3,32c0,5.5,1.6,10.9,4.5,15.5c0.2,0.3,0.2,0.6,0.1,0.8c0,0.1-0.1,0.2-0.2,0.3L3.6,60.4l12.1-4     C15.8,56.4,15.9,56.4,16,56.4z"
           id="path9" /></g><g
         id="g15"><path
           d="M40,47.3c-2.7,0-6.1-0.9-10-2.7c-5.4-2.5-9.8-6.4-12.7-11.3c-1.7-2.8-2.6-5.4-2.7-7.8c0-0.1-0.5-4.7,3.9-8.2     c0.5-0.4,1.1-0.6,1.8-0.6l1.8,0c1.1,0,2.2,0.7,2.6,1.7l2.7,6.6c0.4,1,0.2,2.2-0.5,3l-1.7,1.9c-0.2,0.3-0.3,0.7-0.1,1     c0.1,0.1,0.2,0.4,0.6,0.9c2,2.6,4.7,4.7,7.7,6c0.5,0.2,0.8,0.3,1,0.4c0.3,0.1,0.7,0,0.9-0.3l1.4-2.1c0.6-0.9,1.7-1.4,2.8-1.2     l7.1,1.1c1.1,0.2,2,1,2.3,2.1l0.4,1.8c0.2,0.6,0.1,1.3-0.2,1.9c0,0,0,0,0,0c-2.4,5.2-6.9,5.8-7.1,5.8     C41.4,47.2,40.7,47.3,40,47.3z M20.3,18.7c-0.2,0-0.4,0.1-0.5,0.2c-3.6,2.9-3.2,6.5-3.2,6.5c0.1,2.1,0.9,4.4,2.4,6.9     c2.7,4.5,6.8,8.2,11.8,10.5c4.5,2.1,8.2,2.9,10.9,2.4c0.2,0,3.7-0.6,5.6-4.7c0.1-0.2,0.1-0.4,0-0.5L47,38.2     c-0.1-0.3-0.3-0.6-0.7-0.6l-7.1-1.1c-0.3,0-0.6,0.1-0.8,0.4L37,39c-0.7,1-1.9,1.5-3.1,1.2c-0.3-0.1-0.7-0.2-1.3-0.5     c-3.3-1.5-6.3-3.8-8.5-6.7c-0.4-0.5-0.6-0.8-0.8-1.1c-0.6-1.1-0.4-2.4,0.4-3.3l1.7-1.9c0.2-0.2,0.3-0.6,0.2-0.9l-2.7-6.6     c-0.1-0.3-0.4-0.5-0.8-0.5L20.3,18.7C20.3,18.7,20.3,18.7,20.3,18.7z M48.3,40.9L48.3,40.9L48.3,40.9z"
           id="path13" /></g><path
         style="fill:#ffffff;stroke:#ff0000;stroke-width:0.0941176"
         d="M 30.494118,61.023805 C 26.39196,60.72789 22.899422,59.813987 19.435294,58.130008 18.658824,57.752551 17.6254,57.203591 17.138799,56.910096 c -0.61996,-0.373929 -0.981639,-0.533625 -1.208552,-0.533625 -0.178103,0 -2.968975,0.873352 -6.2019389,1.940782 -3.2329639,1.06743 -5.9032973,1.915601 -5.9340742,1.884824 C 3.72201,60.129853 7.4073945,48.683416 7.5840983,48.431137 7.8149115,48.101605 7.7350021,47.816287 7.1105288,46.74025 0.90269327,36.043459 1.8764368,23.261874 9.6316777,13.647059 10.481113,12.593944 12.806474,10.301698 13.929412,9.4105296 15.636104,8.0560905 18.001279,6.5789947 19.764706,5.7662792 25.594172,3.079637 32.056525,2.3660975 38.202271,3.7304988 49.60492,6.2619723 58.512166,15.595069 60.511079,27.105882 c 0.315225,1.815236 0.408879,2.971656 0.407788,5.035294 -0.0022,4.252 -0.817592,8.026597 -2.579784,11.942967 -1.959021,4.35381 -5.263999,8.417529 -9.209671,11.323986 -4.054689,2.986759 -8.655204,4.805497 -13.751504,5.436431 -1.148289,0.142161 -3.964848,0.245534 -4.88379,0.179245 z M 42.87248,47.158675 c 2.556158,-0.710124 4.818208,-2.679416 6.1326,-5.338905 0.475038,-0.961175 0.507829,-1.523014 0.17539,-3.005082 -0.138244,-0.616313 -0.326647,-1.289982 -0.418672,-1.497041 -0.316436,-0.711981 -0.938265,-1.277899 -1.686319,-1.534695 -0.491833,-0.168839 -7.561599,-1.241776 -8.182274,-1.241776 -0.435238,0 -0.685509,0.06409 -1.142976,0.292688 -0.657267,0.32844 -0.913125,0.616062 -1.938464,2.179121 -0.862003,1.314064 -0.909641,1.334283 -2.049456,0.869833 -3.265683,-1.330695 -6.555703,-3.928422 -8.319611,-6.56898 -0.586778,-0.878404 -0.562236,-0.962678 0.690494,-2.371042 1.234608,-1.387988 1.484469,-1.872304 1.481783,-2.872208 -0.0019,-0.693738 -0.02771,-0.76903 -1.502553,-4.37647 -1.426446,-3.489069 -1.523929,-3.694431 -1.971246,-4.15272 -0.755177,-0.773701 -1.23275,-0.904959 -3.152941,-0.866566 -1.93228,0.03864 -2.091004,0.103562 -3.395072,1.38878 -2.019577,1.990387 -3.028062,4.333691 -3.020645,7.018741 0.0081,2.932285 1.090131,5.89005 3.472383,9.491837 3.534602,5.344058 9.09946,9.40825 15.978628,11.669698 2.396986,0.787981 4.113502,1.073302 6.543069,1.087591 1.364082,0.008 1.76244,-0.02183 2.305882,-0.172804 z"
         id="path40" /><path
         style="fill:#ffffff;stroke:#ff0000;stroke-width:0.0941176"
         d="m 37.988828,45.122551 c -3.166241,-0.492388 -7.656759,-2.330318 -10.805525,-4.422607 -4.653326,-3.092035 -8.352616,-7.650151 -9.906332,-12.206177 -1.163996,-3.413236 -0.644353,-6.246874 1.577267,-8.600912 1.095608,-1.16091 1.14979,-1.185595 2.51931,-1.147789 1.022514,0.02823 1.153841,0.05147 1.29803,0.229768 0.08823,0.109099 0.786356,1.730144 1.551389,3.60232 1.06317,2.601772 1.377636,3.464667 1.33439,3.661566 -0.03129,0.142474 -0.533271,0.791743 -1.123165,1.452724 -1.255374,1.406657 -1.49579,1.862816 -1.501934,2.849732 -0.0051,0.8133 0.168455,1.226405 0.949499,2.260519 1.992165,2.637657 4.571109,4.817809 7.553537,6.385504 1.617966,0.850473 2.34457,1.105611 3.148658,1.105611 1.328313,0 1.838458,-0.363047 3.063278,-2.18 0.698446,-1.036107 1.002994,-1.410123 1.20577,-1.480811 0.211587,-0.07376 1.056429,0.02682 3.838561,0.456969 1.961995,0.303349 3.662021,0.574866 3.777837,0.603371 0.308859,0.07602 0.463303,0.385525 0.587943,1.178249 0.06104,0.388236 0.15219,0.867237 0.202553,1.064447 0.08344,0.32675 0.05772,0.421318 -0.289905,1.06579 -1.17034,2.169733 -3.080773,3.683081 -5.201315,4.120218 -0.884624,0.182359 -2.61247,0.183048 -3.779846,0.0015 z"
         id="path42" /></g></g><g
     id="Pinterrest" /><g
     id="LinkedIn" /><g
     id="Messenger" /><g
     id="Tiktok" /><g
     id="VK" /><g
     id="Thumblr" /><g
     id="OK.ru" /><g
     id="Weibo" /></svg>
