<?xml version="1.0" encoding="UTF-8" standalone="no"?>
<svg
   xmlns:dc="http://purl.org/dc/elements/1.1/"
   xmlns:cc="http://creativecommons.org/ns#"
   xmlns:rdf="http://www.w3.org/1999/02/22-rdf-syntax-ns#"
   xmlns:svg="http://www.w3.org/2000/svg"
   xmlns="http://www.w3.org/2000/svg"
   xmlns:sodipodi="http://sodipodi.sourceforge.net/DTD/sodipodi-0.dtd"
   xmlns:inkscape="http://www.inkscape.org/namespaces/inkscape"
   id="Pie"
   viewBox="0 0 512 512"
   version="1.1"
   sodipodi:docname="iconfinder_Pie_56270112.svg"
   inkscape:version="1.0.1 (3bc2e813f5, 2020-09-07)">
  <metadata
     id="metadata17">
    <rdf:RDF>
      <cc:Work
         rdf:about="">
        <dc:format>image/svg+xml</dc:format>
        <dc:type
           rdf:resource="http://purl.org/dc/dcmitype/StillImage" />
        <dc:title></dc:title>
      </cc:Work>
    </rdf:RDF>
  </metadata>
  <defs
     id="defs15" />
  <sodipodi:namedview
     pagecolor="#ffffff"
     bordercolor="#666666"
     borderopacity="1"
     objecttolerance="10"
     gridtolerance="10"
     guidetolerance="10"
     inkscape:pageopacity="0"
     inkscape:pageshadow="2"
     inkscape:window-width="1228"
     inkscape:window-height="828"
     id="namedview13"
     showgrid="false"
     inkscape:zoom="1.3085938"
     inkscape:cx="256"
     inkscape:cy="286.56716"
     inkscape:window-x="0"
     inkscape:window-y="40"
     inkscape:window-maximized="0"
     inkscape:current-layer="Pie" />
  <path
     d="m 502.53,318.9 c -1.70553,-21.47487 -16.69097,-39.57577 -37.47,-45.26 -0.03,-0.01 -0.07,-0.02 -0.1,-0.03 -10.47784,-2.68029 -19.21024,-9.90167 -23.81,-19.69 -21.14,-45.19 -68.69,-105.49 -172.88,-112.43 -7.01252,-0.46167 -14.04792,-0.45833 -21.06,0.01 -103.88,6.92 -151.45,66.9 -172.67,112.04 -5.155056,10.83917 -15.397735,18.37474 -27.28,20.07 -1.512367,0.18565 -3.007241,0.49332 -4.47,0.92 C 19.134543,282.48605 4.7272405,306.4094 8.7585662,331.03921 12.789892,355.66902 34.072448,373.75076 59.03,373.75 c 1.1,0 2.18,-0.04 3.25,-0.11 0.17873,1.42374 0.821939,2.74882 1.83,3.77 27.4,27.55 35.09,69.71 36.11,76.08 0.66,13.78 17.01,24.99 48.63,33.31 28.57,7.52 66.4,11.66 106.51,11.66 39.92,0 77.62,-4.11 106.14,-11.56 31.36,-8.2 47.82,-19.22 48.96,-32.78 -0.003,-0.0173 9.2e-4,-0.035 0.01,-0.05 0.07,-0.47 7.05,-47.34 36.21,-76.66 1.00819,-1.02108 1.65142,-2.34621 1.83,-3.77 1.07,0.07 2.14,0.11 3.23,0.11 29.67575,0.003 53.07089,-25.26204 50.79,-54.85 z M 315.24,196.06 c 2.02417,2.2598 1.83625,5.73187 -0.42,7.76 l -23.42,21.03 c -5.46,4.9 -12.81,-3.29 -7.35,-8.19 l 23.42,-21.02 c 2.26184,-2.02899 5.74005,-1.84098 7.77,0.42 z m -32.47,-22.49 c 5.45333,-4.9 12.80333,3.28 7.35,8.18 l -72.95,65.48 c -1.00473,0.91116 -2.31365,1.41405 -3.67,1.41 -5.04341,0.003 -7.43047,-6.21805 -3.68,-9.59 z m -9.21,66.95 -13.6,12.41 c -5.41723,5.03761 -12.92425,-3.17763 -7.42,-8.12 l 13.6,-12.42 c 5.41881,-4.92094 12.81427,3.18218 7.42,8.13 z m -67.44,-40.01 24.18,-21.7 c 5.45333,-4.9 12.80333,3.28 7.35,8.18 l -24.19,21.71 c -5.46,4.89333 -12.8,-3.29667 -7.34,-8.19 z m 191.56,251.15 c -0.0888,0.3877 -0.14237,0.78265 -0.16,1.18 -0.32,6.79 -16.12,15.42 -39.31,21.48 -27.48,7.18 -64,11.14 -102.85,11.14 -39.02,0 -75.68,-3.99 -103.2,-11.23 -26.75,-7.04 -38.84,-15.87 -38.95,-21.5 -0.0113,-0.28789 -0.038,-0.57497 -0.08,-0.86 -0.75,-4.86 -11.4509,-47.43254 -36.520896,-78.04254 4.599812,-1.84827 12.763141,-1.98911 16.740896,-4.94746 2.933644,-2.21017 6.97636,-2.21017 9.91,0 20.36511,15.15995 48.26489,15.15995 68.63,0 2.93364,-2.21017 6.97636,-2.21017 9.91,0 20.36508,15.16005 48.26492,15.16005 68.63,0 2.9337,-2.21 6.9763,-2.21 9.91,0 20.36508,15.16005 48.26492,15.16005 68.63,0 2.93364,-2.21017 6.97636,-2.21017 9.91,0 20.36511,15.15995 48.26489,15.15995 68.63,0 2.93364,-2.21017 6.97636,-2.21017 9.91,0 3.98128,2.95846 8.32703,5.39181 12.93,7.24 -24.94,30.41 -31.81,70.02 -32.67,75.54 z"
     id="path4"
     style="fill:#000000"
     sodipodi:nodetypes="cccccccccssccccsccccccccccccccccccccccccccccccccscccccccccccccccc" />
  <path
     d="M250.3,115.4883a6,6,0,0,1-6-6c0-10.2754,6.458-15.624,11.1729-19.5293,4.4863-3.7158,6.8271-5.86,6.8271-10.2871s-2.3408-6.5713-6.8271-10.2871C250.7578,65.48,244.3,60.1309,244.3,49.8555s6.458-15.6221,11.1729-19.5274C259.959,26.6133,262.3,24.4688,262.3,20.043a6,6,0,0,1,12,0c0,10.2744-6.458,15.622-11.1728,19.5273C258.6406,43.2852,256.3,45.43,256.3,49.8555s2.3408,6.5713,6.8272,10.2871C267.8418,64.0479,274.3,69.3965,274.3,79.6719s-6.458,15.624-11.1728,19.5293c-4.4864,3.7158-6.8272,5.86-6.8272,10.2871A6,6,0,0,1,250.3,115.4883Z"
     id="path6"
     style="fill:#ffffff" />
  <path
     d="M290.0273,115.4883a6,6,0,0,1-6-6c0-10.2754,6.4581-15.624,11.1729-19.5293,4.4863-3.7158,6.8271-5.86,6.8271-10.2871s-2.3408-6.5713-6.8271-10.2871c-4.7148-3.9053-11.1729-9.2539-11.1729-19.5293S290.4854,34.2334,295.2,30.3281c4.4863-3.7148,6.8271-5.8593,6.8271-10.2851a6,6,0,0,1,12,0c0,10.2744-6.458,15.622-11.1728,19.5273-4.4863,3.7149-6.8272,5.8594-6.8272,10.2852s2.3409,6.5713,6.8272,10.2871c4.7148,3.9053,11.1728,9.2539,11.1728,19.5293s-6.458,15.624-11.1728,19.5293c-4.4863,3.7158-6.8272,5.86-6.8272,10.2871A6,6,0,0,1,290.0273,115.4883Z"
     id="path8"
     style="fill:#ffffff" />
  <path
     d="M210.5732,115.4883a6,6,0,0,1-6-6c0-10.2754,6.458-15.624,11.1729-19.5293,4.4863-3.7158,6.8271-5.86,6.8271-10.2871s-2.3408-6.5713-6.8271-10.2871c-4.7149-3.9053-11.1729-9.2539-11.1729-19.5293s6.458-15.6221,11.1729-19.5274c4.4863-3.7148,6.8271-5.8593,6.8271-10.2851a6,6,0,0,1,12,0c0,10.2744-6.458,15.622-11.1728,19.5273-4.4863,3.7149-6.8272,5.8594-6.8272,10.2852s2.3409,6.5713,6.8272,10.2871c4.7148,3.9053,11.1728,9.2539,11.1728,19.5293s-6.458,15.624-11.1728,19.5293c-4.4863,3.7158-6.8272,5.86-6.8272,10.2871A6,6,0,0,1,210.5732,115.4883Z"
     id="path10"
     style="fill:#ffffff" />
  <path
     style="fill:#000000;stroke:#ff0000;stroke-width:0.764179"
     d="m 227.72537,484.42888 c -1.68119,-0.15514 -8.21492,-0.66088 -14.5194,-1.12387 -52.4547,-3.85221 -96.62257,-17.35936 -99.39619,-30.39674 -5.38046,-25.2909 -20.259258,-58.17651 -34.694447,-76.68284 -0.876561,-1.12378 -1.326254,-2.19673 -0.999316,-2.38433 0.326937,-0.18761 3.345476,-0.93662 6.707864,-1.66447 3.362388,-0.72785 7.185664,-1.9761 8.496169,-2.77388 3.830337,-2.33175 6.606088,-1.85175 13.52345,2.33858 19.10542,11.57347 42.31206,11.57347 61.41747,0 7.495,-4.54023 9.8597,-4.77289 14.75993,-1.45221 10.05297,6.8125 20.31895,9.97666 32.47761,10.01019 12.80319,0.0353 21.15607,-2.32391 32.07576,-9.05962 6.54091,-4.03471 9.10979,-4.20465 13.88592,-0.91859 4.88548,3.3613 13.51118,7.1642 19.72916,8.6982 6.81824,1.68209 19.61151,1.72109 26.63655,0.0812 5.96923,-1.39342 14.86834,-5.32028 19.896,-8.7794 4.47442,-3.07848 7.89829,-3.12841 12.20011,-0.17792 10.1008,6.92783 20.40648,10.10028 33.00423,10.15986 12.53255,0.0593 22.58777,-2.89605 32.70727,-9.61299 5.37567,-3.56817 8.06903,-3.57618 13.5445,-0.0403 2.29746,1.48363 5.45789,3.289 7.02317,4.01194 1.56528,0.72294 2.85483,1.49582 2.86567,1.71752 0.0109,0.22171 -1.71832,2.80081 -3.8426,5.73135 -12.71005,17.53408 -24.24671,46.1157 -27.87384,69.05629 -2.19329,13.87193 -38.82925,26.24284 -94.3534,31.86045 -11.04204,1.11716 -67.05168,2.16008 -75.27164,1.40158 z"
     id="path19" />
  <path
     style="fill:#000000;stroke:#ff0000;stroke-width:0.764179"
     d="m 210.83679,247.39128 c -1.49049,-0.99523 -2.69603,-4.01581 -2.21173,-5.5417 0.42634,-1.3433 70.76874,-65.11525 75.24647,-68.21796 2.53252,-1.75484 3.56704,-1.65357 5.78708,0.56648 3.95001,3.95001 4.7859,3.03031 -36.09127,39.70983 -38.26975,34.33986 -39.73191,35.4856 -42.73055,33.48335 z"
     id="path21" />
  <path
     style="fill:#000000;stroke:#ff0000;stroke-width:0.764179"
     d="m 206.29362,207.89145 c -3.40029,-3.40029 -2.99381,-4.01907 10.91721,-16.61923 13.39985,-12.13716 15.24122,-13.60058 17.11312,-13.60058 2.14231,0 4.48202,2.76703 4.48202,5.3006 0,1.9191 -1.57619,3.66187 -10.88955,12.04043 -18.63006,16.76013 -18.07315,16.42843 -21.6228,12.87878 z"
     id="path23" />
  <path
     style="fill:#000000;stroke:#ff0000;stroke-width:0.764179"
     d="m 283.948,223.80142 c -1.79198,-2.27813 -1.89201,-2.86038 -0.83174,-4.8415 0.82475,-1.54105 22.51834,-21.37323 25.55759,-23.36463 3.23728,-2.12114 7.31421,0.26282 7.31421,4.27695 0,1.91013 -1.85409,3.89035 -13.18209,14.07882 -14.34768,12.90439 -15.84178,13.68483 -18.85797,9.85036 z"
     id="path25" />
  <path
     style="fill:#ffffff;stroke:#ff0000;stroke-width:0.764179"
     d="m 252.90855,252.21384 c -2.91077,-2.91077 -2.40745,-4.79316 2.51832,-9.41828 7.10775,-6.67393 13.18767,-11.63138 14.26497,-11.63138 0.55195,0 1.90962,0.71272 3.01704,1.58382 3.29757,2.59387 2.70719,5.05847 -2.38052,9.9377 -12.82274,12.29729 -14.00435,12.9436 -17.41981,9.52814 z"
     id="path27" />
  <path
     style="fill:#ffffff;stroke:#ff0000;stroke-width:0.764179"
     d="m 225.81493,497.34044 c -49.81941,-2.8392 -92.09771,-12.25781 -111.36162,-24.80874 -8.35323,-5.44235 -13.96376,-13.26795 -13.96376,-19.47675 0,-2.98453 -5.126723,-21.91134 -8.074452,-29.80923 -6.088696,-16.31351 -15.043704,-31.79542 -24.399477,-42.18316 -2.733965,-3.03553 -4.970845,-5.97267 -4.970845,-6.52699 0,-0.72404 -1.882942,-1.13174 -6.686567,-1.44779 -37.158857,-2.44484 -58.8637062,-41.18775 -41.614416,-74.28127 4.186789,-8.03253 13.203926,-16.74373 21.554714,-20.82338 3.707607,-1.81129 8.627458,-3.53181 11.462687,-4.00861 7.215119,-1.21337 14.834554,-5.20105 20.028308,-10.48196 3.342374,-3.39846 5.7803,-7.15202 10.424559,-16.0502 11.071151,-21.2118 21.555833,-35.4269 37.656809,-51.05501 24.67895,-23.95414 52.43055,-38.94368 88.92913,-48.03348 40.31126,-10.03932 82.50621,-8.37777 122.65075,4.82974 29.44577,9.68763 53.33362,24.25808 74.54275,45.46752 14.83747,14.83769 25.61843,29.84489 36.015,50.1332 7.89536,15.40732 13.5278,20.75101 26.49094,25.13283 9.70387,3.28011 15.48478,6.64882 21.90638,12.76549 6.65752,6.34138 10.68375,12.68891 13.49884,21.28153 1.64228,5.01283 2.014,7.62676 2.06473,14.5194 0.1076,14.62166 -4.13071,24.82237 -14.79906,35.61815 -5.25481,5.31757 -7.74736,7.18874 -12.9972,9.75704 -7.1145,3.48052 -14.78191,5.4089 -21.58806,5.42946 -2.41671,0.008 -4.39403,0.32559 -4.39403,0.70733 0,0.38173 -2.45899,3.54433 -5.46441,7.02799 -14.93645,17.31318 -26.16863,41.481 -31.72075,68.25222 -2.32091,11.19098 -3.48427,13.53891 -9.4408,19.0536 -15.62389,14.46497 -58.06707,25.22173 -113.45651,28.75435 -10.96305,0.69919 -51.59154,0.86663 -62.29364,0.25672 z m 61.8985,-12.4876 c 44.66223,-2.76436 83.33962,-11.09733 100.79031,-21.71507 7.35595,-4.47567 8.37699,-6.0134 10.43031,-15.70848 5.57709,-26.33307 15.80702,-50.15917 28.80072,-67.07857 1.70281,-2.21726 2.96147,-4.15321 2.79704,-4.3021 -0.16444,-0.1489 -2.01838,-1.15332 -4.11987,-2.23203 -2.10149,-1.07872 -5.36836,-3.00996 -7.2597,-4.29165 -4.66235,-3.15948 -8.37654,-3.13931 -13.41457,0.0728 -11.9132,7.59561 -21.22183,10.14432 -35.1108,9.61339 -11.13553,-0.42568 -18.26825,-2.54961 -27.65202,-8.23401 -7.49083,-4.53771 -10.6319,-4.89961 -15.22642,-1.75433 -4.69295,3.21267 -14.88911,7.75473 -20.23888,9.01577 -6.2825,1.48089 -19.52614,1.48762 -25.78089,0.0131 -5.43045,-1.2802 -13.89536,-5.02043 -19.57379,-8.6487 -5.52133,-3.52789 -8.24239,-3.29341 -15.94763,1.37418 -3.44025,2.084 -9.00605,4.73707 -12.36843,5.89572 -5.59191,1.92693 -7.0913,2.10892 -17.57612,2.1333 -9.99832,0.0232 -12.13764,-0.19944 -16.74596,-1.74324 -6.08801,-2.03949 -11.68625,-4.75574 -16.25143,-7.88513 -4.71886,-3.23475 -8.42691,-3.01274 -14.37175,0.86048 -18.87646,12.2985 -43.80617,12.2985 -62.68263,0 -5.17632,-3.37252 -9.636372,-4.02522 -12.898698,-1.88765 -0.975872,0.63941 -5.152149,2.01943 -9.280612,3.0667 -4.12847,1.04727 -7.619844,2.01767 -7.758612,2.15644 -0.138769,0.13876 0.903012,1.7677 2.315068,3.61986 11.742482,15.4023 21.564964,34.81848 29.151634,57.62428 2.2371,6.72477 4.31269,13.77433 4.61244,15.66567 0.76922,4.85356 2.22891,7.31966 5.932,10.02189 16.30902,11.90109 54.9013,21.04013 102.56362,24.28807 13.52155,0.92143 52.38005,0.95589 66.86567,0.0593 z M 267.01196,247.13862 c 7.97306,-7.2585 8.47461,-7.88839 8.47461,-10.64304 0,-2.25291 -0.46421,-3.29308 -2.01351,-4.51176 -3.9228,-3.08568 -5.94825,-1.99979 -18.04619,9.67501 -5.86172,5.65669 -6.55485,8.04684 -3.2825,11.31919 3.49204,3.49204 5.47153,2.71457 14.86759,-5.8394 z m -13.3045,-32.0145 c 20.70178,-18.57087 37.76701,-34.45389 38.16543,-35.52147 1.53166,-4.10411 -2.41244,-8.8411 -6.50494,-7.81266 -1.63214,0.41016 -70.3378,61.21338 -75.79183,67.07434 -2.50765,2.69476 -2.66792,5.12886 -0.51767,7.86246 1.20315,1.52956 2.25925,2.01042 4.39403,2.00066 2.62102,-0.012 5.33101,-2.27419 40.25498,-33.60333 z m 39.16198,8.93714 c 1.57733,-1.38482 7.59623,-6.75337 13.37534,-11.93011 10.02023,-8.97582 10.50746,-9.54748 10.50746,-12.32818 0,-2.23993 -0.46679,-3.2831 -2.01351,-4.49974 -2.83512,-2.23012 -5.01203,-1.97788 -8.56758,0.9927 -7.63356,6.37766 -23.7008,21.26245 -24.11407,22.33943 -0.88422,2.30425 -0.43846,4.21094 1.41864,6.06803 2.6823,2.68231 5.85407,2.4655 9.39372,-0.64213 z m -67.05616,-25.81822 c 13.31957,-11.89768 13.75687,-12.38175 13.75687,-15.22811 0,-2.26575 -0.46168,-3.30298 -2.01351,-4.52364 -2.82261,-2.22027 -5.11549,-1.97781 -8.46736,0.8954 -10.47349,8.9778 -24.66584,22.28156 -25.04533,23.47724 -0.68162,2.14761 0.35013,5.27152 2.15967,6.53897 3.69554,2.58846 5.13608,1.76864 19.60966,-11.15986 z"
     id="path29" />
  <path
     style="fill:#ffffff;stroke:#ff0000;stroke-width:0.764179"
     d="m 253.38084,251.31187 c -1.90044,-2.41601 -1.90957,-2.53061 -0.37631,-4.71965 1.33679,-1.90854 13.64581,-12.85146 15.68098,-13.94065 1.51206,-0.80924 5.2727,1.74482 5.2727,3.58098 0,2.3036 -15.52432,17.09282 -17.94242,17.09282 -0.57812,0 -1.76385,-0.90607 -2.63495,-2.0135 z"
     id="path31" />
  <path
     style="fill:#000000;stroke:#ff0000;stroke-width:0.764179"
     d="m 254.00396,250.53392 -1.82486,-1.96818 7.61949,-7.17448 c 4.19071,-3.94596 8.27172,-7.3815 9.06892,-7.63451 0.92169,-0.29254 2.0361,0.12663 3.0607,1.15123 l 1.61127,1.61127 -7.24138,7.13564 c -9.1909,9.0567 -9.90473,9.45611 -12.29414,6.87903 z"
     id="path33" />
</svg>
