<?xml version="1.0" encoding="UTF-8" standalone="no"?>
<svg
   xmlns:dc="http://purl.org/dc/elements/1.1/"
   xmlns:cc="http://creativecommons.org/ns#"
   xmlns:rdf="http://www.w3.org/1999/02/22-rdf-syntax-ns#"
   xmlns:svg="http://www.w3.org/2000/svg"
   xmlns="http://www.w3.org/2000/svg"
   xmlns:sodipodi="http://sodipodi.sourceforge.net/DTD/sodipodi-0.dtd"
   xmlns:inkscape="http://www.inkscape.org/namespaces/inkscape"
   enable-background="new 0 0 512 512"
   id="Layer_1"
   version="1.1"
   viewBox="0 0 512 512"
   xml:space="preserve"
   sodipodi:docname="iconfinder_telegram_3069742.svg"
   inkscape:version="1.0.1 (3bc2e813f5, 2020-09-07)"><metadata
     id="metadata9"><rdf:RDF><cc:Work
         rdf:about=""><dc:format>image/svg+xml</dc:format><dc:type
           rdf:resource="http://purl.org/dc/dcmitype/StillImage" /></cc:Work></rdf:RDF></metadata><defs
     id="defs7" /><sodipodi:namedview
     pagecolor="#ffffff"
     bordercolor="#666666"
     borderopacity="1"
     objecttolerance="10"
     gridtolerance="10"
     guidetolerance="10"
     inkscape:pageopacity="0"
     inkscape:pageshadow="2"
     inkscape:window-width="1600"
     inkscape:window-height="847"
     id="namedview5"
     showgrid="false"
     inkscape:zoom="1.328125"
     inkscape:cx="256"
     inkscape:cy="256"
     inkscape:window-x="-8"
     inkscape:window-y="-8"
     inkscape:window-maximized="1"
     inkscape:current-layer="Layer_1" /><circle
     cx="256"
     cy="256"
     fill="#0088CC"
     id="ellipse"
     r="256" /><path
     d="M246.4,332.1c-12.3,11.9-24.4,23.7-36.5,35.5c-4.2,4.1-8.9,6.4-15,6.1c-4.1-0.2-6.4-2-7.7-5.9  c-9.2-28.6-18.6-57.2-27.8-85.9c-0.9-2.8-2.2-4.1-5-5c-21.7-6.6-43.5-13.4-65.1-20.3c-3.3-1.1-6.7-2.4-9.6-4.4  c-4.5-3-5.1-7.9-1.1-11.5c3.7-3.3,8.1-6.1,12.7-7.9c26.6-10.5,53.3-20.7,80-31c67.7-26.1,135.4-52.3,203.1-78.4  c12.9-5,22.8,2,21.4,16c-0.9,8.9-3.2,17.7-5,26.5c-14.7,69.4-29.4,138.9-44.2,208.3c-3.5,16.5-15.1,20.8-28.6,10.8  c-22.7-16.7-45.4-33.5-68.1-50.3C248.8,333.8,247.7,333,246.4,332.1z M195.4,353.2c0.3-0.1,0.5-0.1,0.8-0.2c0.1-0.7,0.3-1.3,0.4-1.9  c1.5-15.7,3-31.5,4.3-47.2c0.3-3.5,1.5-6,4.1-8.4c20.9-18.7,41.8-37.6,62.6-56.4c23.1-20.8,46.2-41.6,69.2-62.5c1.4-1.3,2-3.5,3-5.3  c-2.2-0.2-4.5-1.1-6.5-0.6c-2.7,0.7-5.2,2.3-7.6,3.8c-50.9,32.1-101.9,64.2-152.8,96.3c-2.9,1.8-3.4,3.3-2.3,6.5  c3.8,10.8,7.2,21.7,10.7,32.6C186,324.3,190.7,338.8,195.4,353.2z"
     fill="#FFFFFF"
     id="logo"
     style="fill:#000000" /><path
     style="fill:#ffffff;stroke:#ff0000;stroke-width:0.752941"
     d="M 242.82353,511.1712 C 195.84977,508.95952 148.09291,492.57924 109.63506,465.48846 87.75424,450.07501 66.2937,429.11948 50.249649,407.50051 20.6192,367.5742 2.8772415,317.65368 0.88802372,268.61176 -1.0185972,221.60618 8.0037918,179.63751 28.701286,139.23522 46.16463,105.14611 73.068161,73.585287 104.65882,50.128605 170.13515,1.5111588 257.53894,-12.495784 335.43529,13.145396 c 50.85953,16.741454 94.18508,48.100708 126.43381,91.513424 43.72153,58.85723 59.72196,136.04585 43.23338,208.56471 -13.36978,58.80197 -48.25298,111.88503 -97.60197,148.52452 -38.65491,28.69961 -89.51925,47.21395 -135.00808,49.14221 -5.13672,0.21774 -11.20302,0.49765 -13.48067,0.62203 -2.27764,0.12437 -9.56235,-0.0291 -16.18823,-0.34109 z m 93.56685,-121.56008 c 4.98137,-2.08135 8.05858,-6.06563 9.86143,-12.76829 0.44493,-1.65415 11.68009,-54.16989 24.96704,-116.70165 15.95252,-75.07664 24.3093,-115.92493 24.60328,-120.26185 0.35225,-5.19683 0.17515,-7.27479 -0.84846,-9.95506 -2.42944,-6.36141 -8.64413,-9.53126 -15.83893,-8.07877 -3.11498,0.62885 -171.29927,65.13975 -266.57003,102.24898 -24.608456,9.58532 -30.210594,12.29351 -34.425152,16.64183 -4.467599,4.60939 -2.830547,9.92199 4.102678,13.31411 3.668924,1.79503 24.407944,8.55628 60.323184,19.66629 10.39853,3.21668 14.45912,4.80563 15.2003,5.94801 0.55624,0.85735 7.47711,21.54877 15.37971,45.98095 11.19955,34.62521 14.78422,44.83758 16.25397,46.30589 1.61352,1.61192 2.5619,1.88088 6.57252,1.86394 7.67287,-0.0324 9.58988,-1.40755 30.98841,-22.22931 12.22559,-11.89606 19.67079,-18.6163 20.2374,-18.26684 0.49301,0.30407 16.31286,11.93085 35.15521,25.83727 41.22554,30.42615 38.47629,28.48752 42.79407,30.17606 4.35939,1.70481 7.63541,1.78594 11.24337,0.27844 z"
     id="path11" /><path
     style="fill:#ffffff;stroke:#ff0000;stroke-width:0.752941"
     d="m 182.7657,313.03529 c -10.39635,-32.02816 -12.37214,-38.81247 -11.6222,-39.90729 0.8346,-1.21838 151.12649,-96.39664 158.56864,-100.41983 3.41616,-1.84676 6.45766,-2.25608 8.26362,-1.11212 1.54758,0.98029 -0.63026,4.0869 -6.59715,9.41061 -9.70596,8.65972 -126.00602,113.68126 -127.08841,114.76365 -3.09878,3.09877 -3.39108,4.57697 -5.56769,28.15601 -1.19596,12.95582 -2.18132,24.4878 -2.18967,25.62662 -0.008,1.13882 -0.29109,2.07059 -0.62829,2.07059 -0.3372,0 -6.24968,-17.36471 -13.13885,-38.58824 z"
     id="path13" /></svg>
