<?xml version="1.0" encoding="UTF-8" standalone="no"?>
<svg
   xmlns:dc="http://purl.org/dc/elements/1.1/"
   xmlns:cc="http://creativecommons.org/ns#"
   xmlns:rdf="http://www.w3.org/1999/02/22-rdf-syntax-ns#"
   xmlns:svg="http://www.w3.org/2000/svg"
   xmlns="http://www.w3.org/2000/svg"
   xmlns:sodipodi="http://sodipodi.sourceforge.net/DTD/sodipodi-0.dtd"
   xmlns:inkscape="http://www.inkscape.org/namespaces/inkscape"
   height="512pt"
   viewBox="0 0 512 512"
   width="512pt"
   version="1.1"
   id="svg8"
   sodipodi:docname="instagram.svg"
   inkscape:version="1.0.1 (3bc2e813f5, 2020-09-07)">
  <metadata
     id="metadata14">
    <rdf:RDF>
      <cc:Work
         rdf:about="">
        <dc:format>image/svg+xml</dc:format>
        <dc:type
           rdf:resource="http://purl.org/dc/dcmitype/StillImage" />
      </cc:Work>
    </rdf:RDF>
  </metadata>
  <defs
     id="defs12" />
  <sodipodi:namedview
     pagecolor="#ffffff"
     bordercolor="#666666"
     borderopacity="1"
     objecttolerance="10"
     gridtolerance="10"
     guidetolerance="10"
     inkscape:pageopacity="0"
     inkscape:pageshadow="2"
     inkscape:window-width="733"
     inkscape:window-height="828"
     id="namedview10"
     showgrid="false"
     inkscape:zoom="0.98144531"
     inkscape:cx="341.33333"
     inkscape:cy="341.33333"
     inkscape:window-x="0"
     inkscape:window-y="40"
     inkscape:window-maximized="0"
     inkscape:current-layer="svg8" />
  <path
     d="m305 256c0 27.0625-21.9375 49-49 49s-49-21.9375-49-49 21.9375-49 49-49 49 21.9375 49 49zm0 0"
     id="path2" />
  <path
     d="m370.59375 169.304688c-2.355469-6.382813-6.113281-12.160157-10.996094-16.902344-4.742187-4.882813-10.515625-8.640625-16.902344-10.996094-5.179687-2.011719-12.960937-4.40625-27.292968-5.058594-15.503906-.707031-20.152344-.859375-59.402344-.859375-39.253906 0-43.902344.148438-59.402344.855469-14.332031.65625-22.117187 3.050781-27.292968 5.0625-6.386719 2.355469-12.164063 6.113281-16.902344 10.996094-4.882813 4.742187-8.640625 10.515625-11 16.902344-2.011719 5.179687-4.40625 12.964843-5.058594 27.296874-.707031 15.5-.859375 20.148438-.859375 59.402344 0 39.25.152344 43.898438.859375 59.402344.652344 14.332031 3.046875 22.113281 5.058594 27.292969 2.359375 6.386719 6.113281 12.160156 10.996094 16.902343 4.742187 4.882813 10.515624 8.640626 16.902343 10.996094 5.179688 2.015625 12.964844 4.410156 27.296875 5.0625 15.5.707032 20.144532.855469 59.398438.855469 39.257812 0 43.90625-.148437 59.402344-.855469 14.332031-.652344 22.117187-3.046875 27.296874-5.0625 12.820313-4.945312 22.953126-15.078125 27.898438-27.898437 2.011719-5.179688 4.40625-12.960938 5.0625-27.292969.707031-15.503906.855469-20.152344.855469-59.402344 0-39.253906-.148438-43.902344-.855469-59.402344-.652344-14.332031-3.046875-22.117187-5.0625-27.296874zm-114.59375 162.179687c-41.691406 0-75.488281-33.792969-75.488281-75.484375s33.796875-75.484375 75.488281-75.484375c41.6875 0 75.484375 33.792969 75.484375 75.484375s-33.796875 75.484375-75.484375 75.484375zm78.46875-136.3125c-9.742188 0-17.640625-7.898437-17.640625-17.640625s7.898437-17.640625 17.640625-17.640625 17.640625 7.898437 17.640625 17.640625c-.003906 9.742188-7.898437 17.640625-17.640625 17.640625zm0 0"
     id="path4" />
  <path
     d="m256 0c-141.363281 0-256 114.636719-256 256s114.636719 256 256 256 256-114.636719 256-256-114.636719-256-256-256zm146.113281 316.605469c-.710937 15.648437-3.199219 26.332031-6.832031 35.683593-7.636719 19.746094-23.246094 35.355469-42.992188 42.992188-9.347656 3.632812-20.035156 6.117188-35.679687 6.832031-15.675781.714844-20.683594.886719-60.605469.886719-39.925781 0-44.929687-.171875-60.609375-.886719-15.644531-.714843-26.332031-3.199219-35.679687-6.832031-9.8125-3.691406-18.695313-9.476562-26.039063-16.957031-7.476562-7.339844-13.261719-16.226563-16.953125-26.035157-3.632812-9.347656-6.121094-20.035156-6.832031-35.679687-.722656-15.679687-.890625-20.6875-.890625-60.609375s.167969-44.929688.886719-60.605469c.710937-15.648437 3.195312-26.332031 6.828125-35.683593 3.691406-9.808594 9.480468-18.695313 16.960937-26.035157 7.339844-7.480469 16.226563-13.265625 26.035157-16.957031 9.351562-3.632812 20.035156-6.117188 35.683593-6.832031 15.675781-.714844 20.683594-.886719 60.605469-.886719s44.929688.171875 60.605469.890625c15.648437.710937 26.332031 3.195313 35.683593 6.824219 9.808594 3.691406 18.695313 9.480468 26.039063 16.960937 7.476563 7.34375 13.265625 16.226563 16.953125 26.035157 3.636719 9.351562 6.121094 20.035156 6.835938 35.683593.714843 15.675781.882812 20.683594.882812 60.605469s-.167969 44.929688-.886719 60.605469zm0 0"
     id="path6" />
  <path
     style="fill:#ffffff;stroke:#ff0000;stroke-width:1.01891"
     d="M 318.40796,681.52849 C 245.62417,674.99403 186.81361,652.30782 130.92935,609.20846 115.86524,597.59064 85.076034,566.80142 73.458207,551.73731 34.005923,500.58198 11.507088,446.45939 2.885203,381.96879 0.43188683,363.6183 0.43188683,319.04836 2.885203,300.69788 11.510929,236.17855 33.988353,182.10747 73.458207,130.92935 85.076034,115.86524 115.86524,85.076034 130.92935,73.458207 182.08468,34.005923 236.20727,11.507088 300.69788,2.885203 c 18.35048,-2.45331613 62.92042,-2.45331613 81.27091,0 41.11589,5.4968717 73.71512,15.28451 109.14365,32.769444 37.58881,18.551094 65.61245,38.910972 94.83076,68.896923 26.051,26.73543 45.88987,55.21471 62.57989,89.83532 16.26168,33.73205 25.96897,66.74694 31.25837,106.31099 2.45652,18.37445 2.4528,62.89655 -0.007,81.39167 -5.08973,38.27256 -15.1594,72.73852 -30.69884,105.07446 -18.20725,37.88735 -37.05317,64.40916 -67.26953,94.6682 -29.82888,29.87101 -56.29062,48.74006 -93.52652,66.69088 -33.38556,16.09464 -67.91161,26.26414 -105.68077,31.12778 -12.12539,1.56142 -54.05281,2.78782 -64.19105,1.87762 z M 437.6199,535.54512 c 11.18376,-1.72597 16.85853,-3.02384 25.98209,-5.94237 35.75133,-11.43644 60.42402,-38.9538 69.22708,-77.20872 3.8477,-16.7207 4.13411,-24.48567 4.13411,-112.0796 0,-77.40157 -0.17621,-86.74969 -1.84221,-97.73259 -6.92265,-45.63672 -31.30464,-76.21819 -71.47306,-89.64614 -21.00434,-7.02156 -39.75633,-8.05351 -135.45987,-7.45448 -83.9602,0.52551 -87.92275,0.80086 -109.12336,7.58269 -31.83763,10.18449 -55.29293,33.52798 -66.05868,65.74382 -7.15613,21.41424 -8.11139,38.53674 -7.52697,134.917 0.51403,84.77286 0.77785,88.59498 7.58431,109.87726 8.3274,26.03791 26.22552,47.40387 49.69885,59.32827 16.27099,8.26562 35.05061,12.64475 59.60597,13.89921 17.886,0.91375 168.14406,-0.18743 175.25174,-1.28435 z"
     id="path16"
     transform="scale(0.74999998)" />
  <path
     style="fill:#ffffff;stroke:#ff0000;stroke-width:1.01891"
     d="m 271.02886,500.81615 c -35.59188,-1.57541 -52.32746,-7.06818 -67.39617,-22.12005 -12.25512,-12.24142 -18.37247,-27.47784 -20.95704,-52.19752 -1.71464,-16.39936 -1.71464,-153.93114 0,-170.33049 2.59691,-24.83763 8.68564,-39.93433 21.12188,-52.37056 12.3114,-12.3114 27.17661,-18.37264 51.77847,-21.11249 15.90037,-1.77078 155.51568,-1.76517 171.51466,0.007 24.5764,2.72211 39.46296,8.79007 51.77848,21.10559 12.1809,12.1809 18.56244,27.67644 20.92855,50.81832 1.67133,16.34652 2.41832,116.38855 1.11159,148.87072 -1.58367,39.36577 -4.16264,50.96783 -14.80873,66.62006 -11.71927,17.23008 -29.79614,26.5785 -57.42826,29.69892 -12.20238,1.37798 -131.99402,2.14592 -157.64343,1.0106 z m 93.87562,-61.13078 c 18.24924,-4.36178 34.2023,-13.36067 47.81126,-26.96963 13.72264,-13.72264 22.46252,-29.29422 27.1975,-48.45703 3.06054,-12.38624 3.02027,-33.61697 -0.0877,-46.23236 -9.08794,-36.88838 -36.76229,-65.06213 -73.40715,-74.73184 -13.51962,-3.56751 -34.9516,-3.78261 -48.28993,-0.48468 -19.17676,4.74151 -34.26833,13.24718 -48.16989,27.14873 -13.90744,13.90746 -22.42128,29.01744 -27.14168,48.16989 -3.12593,12.68307 -3.11494,33.76978 0.0242,46.51187 10.15357,41.21378 44.18167,71.84602 85.62725,77.08204 9.50427,1.20072 26.97676,0.2239 36.4361,-2.03699 z m 90.32427,-180.72898 c 9.10703,-3.81632 14.30847,-11.79556 14.38085,-22.06087 0.0986,-13.98017 -9.84928,-23.92662 -23.83846,-23.83509 -14.65724,0.0959 -24.08933,10.2082 -23.25723,24.93446 0.52415,9.27601 4.3525,15.53164 11.92663,19.48841 6.19044,3.23393 15.0826,3.86404 20.78821,1.47309 z"
     id="path18"
     transform="scale(0.74999998)" />
  <path
     style="fill:#ffffff;stroke:#ff0000;stroke-width:1.01891"
     d="m 330.63483,405.39635 c -22.98377,-4.44688 -42.0296,-20.73861 -50.49927,-43.19687 -2.61439,-6.93233 -2.87387,-8.81633 -2.87387,-20.86615 0,-12.05215 0.25936,-13.9344 2.87818,-20.88756 7.25441,-19.26102 20.73119,-32.87395 39.64744,-40.04801 7.73266,-2.93263 9.20604,-3.14749 21.54602,-3.14198 12.0441,0.005 13.93905,0.26702 20.88757,2.88409 19.34525,7.28613 33.0589,20.99735 40.31307,40.3059 2.60961,6.94605 2.871,8.84774 2.871,20.88756 0,12.05215 -0.25936,13.9344 -2.87817,20.88757 -7.30608,19.39819 -21.21258,33.27585 -40.3059,40.22227 -6.09487,2.2174 -9.80749,2.84758 -18.3403,3.11311 -5.88418,0.18311 -11.84478,0.11114 -13.24577,-0.15993 z"
     id="path20"
     transform="scale(0.74999998)" />
</svg>
