<?xml version="1.0" encoding="UTF-8" standalone="no"?>
<svg
   xmlns:dc="http://purl.org/dc/elements/1.1/"
   xmlns:cc="http://creativecommons.org/ns#"
   xmlns:rdf="http://www.w3.org/1999/02/22-rdf-syntax-ns#"
   xmlns:svg="http://www.w3.org/2000/svg"
   xmlns="http://www.w3.org/2000/svg"
   xmlns:sodipodi="http://sodipodi.sourceforge.net/DTD/sodipodi-0.dtd"
   xmlns:inkscape="http://www.inkscape.org/namespaces/inkscape"
   height="100%"
   style="fill-rule:evenodd;clip-rule:evenodd;stroke-linejoin:round;stroke-miterlimit:2;"
   version="1.1"
   viewBox="0 0 24 24"
   width="100%"
   xml:space="preserve"
   id="svg7"
   sodipodi:docname="profile_user_icon_1486301.svg"
   inkscape:version="1.0.1 (3bc2e813f5, 2020-09-07)"><metadata
     id="metadata13"><rdf:RDF><cc:Work
         rdf:about=""><dc:format>image/svg+xml</dc:format><dc:type
           rdf:resource="http://purl.org/dc/dcmitype/StillImage" /><dc:title></dc:title></cc:Work></rdf:RDF></metadata><defs
     id="defs11" /><sodipodi:namedview
     pagecolor="#ffffff"
     bordercolor="#666666"
     borderopacity="1"
     objecttolerance="10"
     gridtolerance="10"
     guidetolerance="10"
     inkscape:pageopacity="0"
     inkscape:pageshadow="2"
     inkscape:window-width="1333"
     inkscape:window-height="838"
     id="namedview9"
     showgrid="false"
     inkscape:zoom="28.333333"
     inkscape:cx="12"
     inkscape:cy="12"
     inkscape:window-x="0"
     inkscape:window-y="0"
     inkscape:window-maximized="0"
     inkscape:current-layer="Icon" /><g
     id="Icon"><path
       d="M12,2.25c-5.381,-0 -9.75,4.369 -9.75,9.75c-0,5.381 4.369,9.75 9.75,9.75c5.381,0 9.75,-4.369 9.75,-9.75c-0,-5.381 -4.369,-9.75 -9.75,-9.75Zm5.25,16.112l-0,-1.749c0,-0.381 -0.224,-0.725 -0.571,-0.88c-0.001,0 -0.001,0 -0.002,-0c-1.458,-0.648 -3.036,-0.983 -4.631,-0.983c-0.031,0 -0.061,0 -0.092,0c-1.595,-0 -3.173,0.335 -4.631,0.983c-0.001,0 -0.001,0 -0.002,0c-0.347,0.155 -0.571,0.499 -0.571,0.88l-0,1.749c1.426,1.179 3.256,1.888 5.25,1.888c1.994,0 3.824,-0.709 5.25,-1.888Zm1.5,-1.62c0.945,-1.342 1.5,-2.978 1.5,-4.742c-0,-4.553 -3.697,-8.25 -8.25,-8.25c-4.553,-0 -8.25,3.697 -8.25,8.25c-0,1.764 0.555,3.4 1.5,4.742l-0,-0.129c-0,-0.973 0.573,-1.855 1.462,-2.25c0.001,-0 0.001,-0.001 0.001,-0.001c1.65,-0.733 3.436,-1.112 5.241,-1.112c0.031,0 0.061,0 0.092,0c1.805,-0 3.591,0.379 5.241,1.112c0,0 0,0.001 0.001,0.001c0.889,0.395 1.462,1.277 1.462,2.25l-0,0.129Z"
       id="path2"
       style="fill:#ffffff" /><path
       d="M12,4.75c-2.07,0 -3.75,1.68 -3.75,3.75c0,2.07 1.68,3.75 3.75,3.75c2.07,-0 3.75,-1.68 3.75,-3.75c0,-2.07 -1.68,-3.75 -3.75,-3.75Zm0,1.5c1.242,0 2.25,1.008 2.25,2.25c0,1.242 -1.008,2.25 -2.25,2.25c-1.242,-0 -2.25,-1.008 -2.25,-2.25c0,-1.242 1.008,-2.25 2.25,-2.25Z"
       id="path4"
       style="fill:#ffffff" /></g></svg>
